<svg xmlns="http://www.w3.org/2000/svg" viewBox="0 0 200 200" fill="none" role="img" aria-label="TrocasCopa">
  <!-- Mark centered top -->
  <g transform="translate(68 16)">
    <rect x="2" y="2" width="60" height="60" rx="14" fill="oklch(0.62 0.17 148)"/>
    <path d="M14 16 L14 44 M22 16 L22 44 M10 16 L26 16" stroke="oklch(1 0 0)" stroke-width="3.5" stroke-linecap="round"/>
    <path d="M14 22 L22 22 M14 28 L22 28 M14 34 L22 34 M14 40 L22 40" stroke="oklch(1 0 0 / 0.35)" stroke-width="1"/>
    <circle cx="42" cy="38" r="11" fill="oklch(0.86 0.17 92)" stroke="oklch(0.20 0.03 280)" stroke-width="1.5"/>
    <path d="M42 31 L46 34 L44 39 L40 39 L38 34 Z" fill="oklch(0.20 0.03 280)"/>
    <path d="M37 36 L33 39 M47 36 L51 39 M40 44 L38 49 M44 44 L46 49" stroke="oklch(0.20 0.03 280)" stroke-width="1.2" stroke-linecap="round"/>
    <circle cx="49" cy="18" r="3" fill="oklch(0.58 0.22 25)"/>
  </g>
  <!-- Wordmark -->
  <text x="100" y="120"
        text-anchor="middle"
        font-family="Bricolage Grotesque, Inter, sans-serif"
        font-size="30" font-weight="800"
        fill="oklch(0.20 0.03 280)"
        letter-spacing="-1">trocascopa</text>
  <!-- Tagline -->
  <text x="100" y="148"
        text-anchor="middle"
        font-family="Inter, sans-serif"
        font-size="13" font-weight="600"
        fill="oklch(0.45 0.025 280)"
        letter-spacing="2">COPA 2026</text>
  <!-- Bandeirinhas USA / MEX / CAN -->
  <g transform="translate(70 170)">
    <rect x="0" y="0" width="18" height="12" fill="oklch(0.52 0.19 245)"/>
    <rect x="22" y="0" width="6" height="12" fill="oklch(0.62 0.17 148)"/>
    <rect x="28" y="0" width="6" height="12" fill="oklch(1 0 0)"/>
    <rect x="34" y="0" width="6" height="12" fill="oklch(0.58 0.22 25)"/>
    <rect x="44" y="0" width="18" height="12" fill="oklch(0.58 0.22 25)"/>
  </g>
</svg>
